<svg xmlns="http://www.w3.org/2000/svg" viewBox="0 0 24 24" width="24" height="24" fill="currentColor" aria-label="Caramelo VS Code Activity Bar Icon">
  <!-- Monochrome cat-face icon inspired by Caramelo for VS Code Activity Bar -->
  <path d="M7.1 3.2c.9.2 1.9 1.1 2.7 2.3 1.4-.5 3-.5 4.4 0 .8-1.2 1.8-2.1 2.7-2.3.5-.1.9.2.9.7v4.2c1.1 1.3 1.7 2.9 1.7 4.7 0 4.6-3.7 8.3-8.3 8.3S3.8 17.4 3.8 12.8c0-1.8.6-3.4 1.7-4.7V3.9c0-.5.4-.8.9-.7.9.2 1.9 1.1 2.7 2.3zm-.1 5.9c-1 1-1.6 2.4-1.6 3.7 0 3.7 3 6.7 6.7 6.7s6.7-3 6.7-6.7c0-1.4-.5-2.7-1.6-3.7-.2-.2-.3-.4-.3-.6V5.6c-.4.3-.9.9-1.3 1.6-.2.4-.7.5-1.1.3-1.4-.7-3-.7-4.4 0-.4.2-.9.1-1.1-.3-.4-.7-.8-1.3-1.3-1.6v2.9c0 .2-.1.4-.3.6z"/>
  <path d="M9.3 11.6a1 1 0 1 1 0 .01zm5.4 0a1 1 0 1 1 0 .01z"/>
  <path d="M12 13.1c-.6 0-1 .4-1 1 0 .3.2.6.4.8l.6.5.6-.5c.3-.2.4-.5.4-.8 0-.6-.4-1-1-1z"/>
  <path d="M8.5 15.2c.1 0 .2 0 .3.1l2.3.8c.4.1.6.6.5 1s-.6.6-1 .5l-2.3-.8c-.4-.1-.6-.6-.5-1 .1-.4.4-.6.7-.6zm7 0c.3 0 .6.2.7.6.1.4-.1.9-.5 1l-2.3.8c-.4.1-.9-.1-1-.5-.1-.4.1-.9.5-1l2.3-.8c.1-.1.2-.1.3-.1z"/>
  <path d="M6.7 13.2c.1-.3.4-.5.8-.5l2.5.3c.4 0 .7.4.7.8s-.4.7-.8.7l-2.5-.3c-.4 0-.7-.4-.7-.8 0-.1 0-.2 0-.2zm10.6 0c0 .1.1.1.1.2 0 .4-.3.8-.7.8l-2.5.3c-.4 0-.8-.3-.8-.7s.3-.8.7-.8l2.5-.3c.4 0 .7.2.7.5z"/>
</svg>
