<svg xmlns="http://www.w3.org/2000/svg" viewBox="0 0 24 24" width="24" height="24" fill="#424242">
  <path d="M7.1 3.2c.9.2 1.9 1.1 2.7 2.3 1.4-.5 3-.5 4.4 0 .8-1.2 1.8-2.1 2.7-2.3.5-.1.9.2.9.7v4.2c1.1 1.3 1.7 2.9 1.7 4.7 0 4.6-3.7 8.3-8.3 8.3S3.8 17.4 3.8 12.8c0-1.8.6-3.4 1.7-4.7V3.9c0-.5.4-.8.9-.7z"/>
  <circle cx="9.3" cy="11.6" r="1" fill="#fff"/>
  <circle cx="14.7" cy="11.6" r="1" fill="#fff"/>
  <path d="M12 13.1c-.6 0-1 .4-1 1 0 .3.2.6.4.8l.6.5.6-.5c.3-.2.4-.5.4-.8 0-.6-.4-1-1-1z" fill="#fff"/>
</svg>
